<svg id="Layer_1" data-name="Layer 1" xmlns="http://www.w3.org/2000/svg" viewBox="0 0 1494.15 1494.15"><defs><style>.cls-1{fill:#46b0c6;}.cls-2{fill:#358da0;}.cls-3{fill:#2b6b5e;}.cls-4{fill:#1c574c;}.cls-5{fill:#4a9c89;}.cls-6{fill:#80a878;}.cls-7{fill:#a1d294;}.cls-8{fill:#368fa1;}.cls-9{fill:#2b767d;}.cls-10{fill:#1e6775;}.cls-11{fill:#b24b5b;}.cls-12{fill:#266457;}.cls-13{fill:#90bc85;}.cls-14{fill:#7bcfe5;}.cls-15{fill:#59b7a0;}.cls-16{fill:#c4e1b9;}.cls-17{fill:#105460;}.cls-18{fill:#973e4d;}.cls-19{fill:#c45364;}.cls-20{fill:#e98095;}.cls-21{fill:#3d8677;}.cls-22{fill:#70c7b3;}.cls-23{fill:#2f7163;}.cls-24{fill:#2e7062;}.cls-25{fill:#adb369;}.cls-26{fill:#51886b;}</style></defs><title>Artboard 2</title><path class="cls-1" d="M920,720.5s-38.12,71.83-91.62,105.55,52.74,24,52.74,24,52.44-41.19,68.57-101.29C949.74,748.72,940.57,727.83,920,720.5Z"/><path class="cls-2" d="M930.22,725.71c0,.12,3.2,37.84,3.88,60.88a166.79,166.79,0,0,0,15.64-37.87S943.62,734.81,930.22,725.71Z"/><path class="cls-1" d="M857,581.73S849.85,647,843.8,711.28s0,104.45,0,104.45L783.88,846s-24.74-88-8.8-180.32S857,581.73,857,581.73Z"/><path class="cls-2" d="M775.08,665.65c-7,40.27-6.17,79.7-3.07,111.37l72.71-195C824.85,584.59,786.7,598.38,775.08,665.65Z"/><path class="cls-3" d="M697.94,830.94s203.77-56.09,246.29-43.07,38.48,85.22,38.48,85.22,5.5,180,9.16,241.52a154.47,154.47,0,0,1-47.64,6.6L893.56,897.68a13.07,13.07,0,0,0-16.78-8.83L719.19,961.42S594.58,872,598.25,869.79s76.23-40.31,76.23-40.31Z"/><path class="cls-4" d="M867.73,865,667.51,904.24l80.71,43.81,128.57-59.2a13.07,13.07,0,0,1,16.78,8.83l21.67,95.63L906.38,894A32.53,32.53,0,0,0,867.73,865Z"/><path class="cls-5" d="M982.7,873.09s4-72.2-38.48-85.22-246.29,43.07-246.29,43.07l-2.45-.15a14.29,14.29,0,0,0,5.38,9.13s182-43.51,225.24-37.38,48.75,97.81,53.48,109.4a6.73,6.73,0,0,0,4.47,3.79C983.23,890.24,982.7,873.09,982.7,873.09Z"/><path class="cls-3" d="M693.54,892.52s28.9,25.72,53.68,56.35c63.61,78.65,184.61,230.79,238.42,315.46-20.34,14.84-32.63,24.51-50.58,34.63,0,0-105.55-152.83-251.78-224.3S486.1,950.79,478,905,578.46,789.9,578.46,789.9Z"/><path class="cls-6" d="M509,931.63l7.5-4a11.23,11.23,0,0,1,14,2.83l7.35,9a6.08,6.08,0,0,1-.76,8.46c-4.68,4-11.29,10.31-11.73,14.72C524.7,969.57,509,931.63,509,931.63Z"/><path class="cls-7" d="M489.4,922.57s10.63,4.76,20.89,2.93,8.8,15,14.66,25.29a58.16,58.16,0,0,0,8.44,10.83,16.85,16.85,0,0,1,.39,22.84c-7.93,8.88-21.54,21.27-43.86,34.46a7.83,7.83,0,0,1-10.87-3c-5.49-10.19-15.81-28.45-22.74-35.24a7.63,7.63,0,0,1-2-7.51C457.36,962.38,466.53,937.25,489.4,922.57Z"/><path class="cls-7" d="M936.53,660.69l-10.42-9.89s19.18-33.07,28.83-32.1,60.14,40.54,61.48,49.15-29.27,57.22-35.21,57.73-13.68,4.15-13.79,5.24-34.18-15-34.18-15l18.51-12.37S940,677.24,939.08,675.68,936.53,660.69,936.53,660.69Z"/><path class="cls-2" d="M958.89,1155.26a24.12,24.12,0,0,0,7.85,3.68c10,2.63,35.32,9.71,49,17.25,12.66,7,44.31,3.71,60.21,1.48a3.21,3.21,0,0,0,1.12-6c-9.87-5.53-25.51-14.89-29.44-20.78-4.69-7-26.24-18-34.7-22.18a9.59,9.59,0,0,0-7-.57L952,1144.36a3,3,0,0,0-.88,5.35Z"/><path class="cls-2" d="M961.56,1321.16a18.86,18.86,0,0,0,5.82,2.46c10.37,2.44,44.39,10.8,62.14,19.61,15.51,7.7,54.45,4.41,74,2.13,3.75-.44,4.72-4.82,1.42-6.48-12.1-6.08-31.25-16.35-36-22.78-5.71-7.66-32.14-19.79-42.51-24.34a13.26,13.26,0,0,0-8.58-.68l-66.45,17.1c-3,.76-3.63,4.2-1.12,5.79Z"/><path class="cls-8" d="M724.23,459.32s63.68,27.49,75.86,47.19-32.16,58-32.16,58l-26,29.69L726,545.26l-9.35-61.94Z"/><polyline class="cls-9" points="767.94 564.5 741.91 594.19 725.97 545.26"/><path class="cls-10" d="M800,510.35c-5.3-8.57-20.34-18.61-35.65-27.22,5.18,16.19,16.49,63.66-15.91,96.28-8.55,8.61-8.24,12.74-2.51,13.94l21.91-25S812.14,530.05,800,510.35Z"/><path class="cls-10" d="M773.62,539a52.25,52.25,0,0,0-14.75,16.49c-6,10.72-10.34,17.5-10.34,17.5s4.72-36.92,0-44.62-25.64-51.49-25.64-51.49l1.37-17.59s-10.31,12.69-20.81,11c0,0-7.81,71.84,1.14,146.33a11.68,11.68,0,0,0,3,6.63c3.67,3.9,12,12,25.32.48C751,608,788,561.94,788,561.94l9.69-31.52Z"/><path class="cls-11" d="M727.53,543.7s5.91,16,6.09,16.35,11.77,6.46,11.77,6.46-1.92-29.78-5-36.28S727.53,543.7,727.53,543.7Z"/><path class="cls-11" d="M780.58,553c-.55.41-24.05,15.39-28,19s6.88,11.41,6.88,11.41L779.21,573,788,555.16Z"/><path class="cls-1" d="M724.23,459.32s10.32,45,23.73,67.39a4,4,0,0,1-.85,5.11c-7,5.87-25.56,22.42-33.67,37.89a1.56,1.56,0,0,1-2.94-.49c-2.35-15.45-8.88-61.12-6.62-77C706.64,473,724.23,459.32,724.23,459.32Z"/><path class="cls-4" d="M695.1,242.31s-26.66,28.07-19.52,86.9,27.49,59.37,27.49,59.37l58.82-120.94-30.24-18.69Z"/><path class="cls-7" d="M731.65,248.95s-52,35.92-41.78,140.74,93.61,98.29,110.5,94c39-9.9,70.37-41.78,96.21-75.32s-2.93-136.7-21.26-148.43S755.84,233.55,731.65,248.95Z"/><path class="cls-12" d="M732.87,411.4s37.26,16.49,115.33,0c0,0,.83,45-39,56.51S737.27,441.36,732.87,411.4Z"/><path class="cls-6" d="M731.65,248.95s-14.34,9.92-26.48,34.48c15.14,4.68,61.89,18,89.15,6.2,25.72-11.15,16-35.32,10.53-45.44C774.52,241.08,743.64,241.32,731.65,248.95Z"/><path class="cls-6" d="M818.21,477.47c30.91-13.74,56.59-40.83,78.37-69.1,12.63-16.39,12.27-49.21,6.46-79.94L882.28,346.8S888.71,417.4,818.21,477.47Z"/><path class="cls-3" d="M861.86,324.3c2,12.67,6.39,49.73-3.87,90.07a2.3,2.3,0,0,0,3.8,2.27,191.23,191.23,0,0,0,29.29-35.38s-6.15,37.89-25.6,59.39a1.59,1.59,0,0,0,1.69,2.56c24.23-7.81,57.79-28.36,81.08-64.14,13.6-20.89,27.49-52,20.52-68.17-4.85-11.24-18.79-17-26.79-19.47a3.43,3.43,0,0,1-1.41-5.7c8.33-8.42,25.22-28.28,21.6-47.76-4.76-25.65-55.26-28.59-55.26-28.59s2.49-24.92-21.7-29.69c-23.08-4.55-111.58-13.1-131.73-33a2,2,0,0,0-3.39,1c-1.37,7.1-3,23.64,3.82,48.72,0,0-51.76,2.5-76.58-18a2.37,2.37,0,0,0-3.91,1.59c-1.14,13.62-2.38,53.31,18.64,75.53,21.61,22.84,72.34,28.53,87.8,29.75a9.24,9.24,0,0,1,6.91,4.05c7.23,10.63,31,39.68,69.87,31.4A4.34,4.34,0,0,1,861.86,324.3Z"/><path class="cls-4" d="M912,323c-.85-.7,2.26,17.2-19.09,54.17s14,11.43,14,11.43S926.63,335.07,912,323Z"/><path class="cls-4" d="M939.09,337.64c-13.56,22-27.12,22.43-27.12,22.43h-3.3l-20.33,33.42c-3.43,13-10.42,33.4-22.86,47.16a1.59,1.59,0,0,0,1.69,2.56c24.23-7.81,57.79-28.36,81.08-64.14,9.52-14.62,19.15-34.27,21.7-50.27C963.17,325.51,949.06,321.48,939.09,337.64Z"/><path class="cls-7" d="M883.76,365.62H909a6.83,6.83,0,0,1,6.83,6.83V422a6.83,6.83,0,0,1-6.83,6.83H883.76a0,0,0,0,1,0,0V365.62A0,0,0,0,1,883.76,365.62Z" transform="translate(319.18 -396.69) rotate(30)"/><path class="cls-6" d="M890.9,413.69c-10.26-4.21-7.52-12.27-8.3-18.72l-12.5,21.65L892,429.28a6.77,6.77,0,0,0,9.25-2.48L917,399.55C906.92,411.07,899.47,417.21,890.9,413.69Z"/><path class="cls-4" d="M785,206.34c-20-8.5-35.2-31-35.28-31.14a147.83,147.83,0,0,0,4.21,21.24s-2.64.12-7,.09C764.28,210,785,206.34,785,206.34Z"/><path class="cls-13" d="M944,667.29c1.76-1,36.74,2.08,41.28,21.31s-39.39-4.68-39.39-4.68S937.85,670.69,944,667.29Z"/><path class="cls-6" d="M939.28,635.15s21.6,17.29,25.75,21.37c5.2,5.12,14.16,24.08,3.74,23.3s-27.95-9.62-27.95-9.62,19.11,12.33,19.44,17.33,2.18,21.06-10.08,26.89a22.89,22.89,0,0,1-26.66-4.25s9.85-13.47,6.68-20.41S912.46,665.61,914,661.62,935,634.17,939.28,635.15Z"/><path class="cls-5" d="M716.45,925.76c.82.73,13.93,14.2,19.91,20.41,14.4,14.95,149.64,178.21,158,197,8.8,19.79-24.92-21.94-24.92-21.94s-83.56-102.67-96-109.27c0,0-69.09-72.24-72.38-75.86C694.45,928.85,701.23,912.12,716.45,925.76Z"/><path class="cls-14" d="M727.53,493s9.92,30.37,7.79,35.9-17,20.54-17.59,24,27.67-24,27.67-24-15.07-37.06-15.53-38C729.32,489.91,726.53,489.46,727.53,493Z"/><path class="cls-15" d="M927.36,218.16c1-.45,33,7,28.59,28.22s-14.29,31.89-16.86,27.85,7.7-11.73,4.4-23.09S931,236.85,927.36,231.35,919.76,221.59,927.36,218.16Z"/><path class="cls-15" d="M858.83,183.71s40.33-1.83,42.89,11.36-5.14,15.73-7.7,11.71S890.5,190.22,880.53,191,852.6,188.84,858.83,183.71Z"/><path class="cls-15" d="M905.65,325.8c5.84,1.8-14.84,48.76-21.44,57s-8.38-.69-3-7.7c3.11-4.06,8.62-16.24,10.95-22.81C893.92,347.26,899.92,324,905.65,325.8Z"/><path class="cls-16" d="M916,375.21a11.67,11.67,0,0,1,3.12,14.11c-2,4.21-6.6,11-8.43,10.26s-.37-4.76.55-7.7,4.58-9.62.55-12.09c-3.43-2.1-8.46-8.61-4.87-8.8S912.45,372.41,916,375.21Z"/><path class="cls-14" d="M846.34,604.87a2.18,2.18,0,0,1,4.09,1.23c-2.82,27.25-10.43,99.82-12,102.1-1.88,2.82-5.63-13.38-5.63-13.38s5.7-72.6,9.53-81.63C843.62,610.25,845,607.39,846.34,604.87Z"/><path class="cls-14" d="M450.63,813.3a5.18,5.18,0,0,0-2.31-7.27,4.24,4.24,0,0,0-4.74,1.1c-4.4,4-2.7,55.89,4,72.57,6,14.76,12.75,26.39,14.07,26.75s4.62.73,3.52-3.66c-.59-2.35-4-11.09-7-18.71a101.52,101.52,0,0,1-6.68-27.3c-1.39-13.67-3-32.76-1.7-39.2C449.86,817.25,450.5,813.55,450.63,813.3Z"/><path class="cls-17" d="M704.56,616.59a11.68,11.68,0,0,0,3,6.63c3.67,3.9,12,12,25.32.48,1.9-1.65,16.54-14.09,18.79-16.32-35,14-44.23-34.79-51.34-57.92A637.31,637.31,0,0,0,704.56,616.59Z"/><path class="cls-11" d="M731.55,589.24a302.16,302.16,0,0,1-22.68,31.89c-9.11,11,3.78,16.86,4.91,17.59S727.29,636,727.29,636s17.3-32.25,19.38-39.4-7.75-14.11-7.75-14.11Z"/><path class="cls-18" d="M746.52,597c.05-.16.11-.32.15-.46,2.08-7.15-7.75-14.11-7.75-14.11l-7.37,6.78s-3,5-7.81,12Z"/><path class="cls-19" d="M731.79,555l-1.67,33.14a5.34,5.34,0,0,0,2.85,5L744,599a3.42,3.42,0,0,0,3.89-.5l23-20.91a4,4,0,0,0,.43-4.6c-3.07-4.13-15.18-17.16-35.45-21.16A3.47,3.47,0,0,0,731.79,555Z"/><path class="cls-20" d="M747.21,559.74s18.32,12.83,7.15,29.69c0,0,13.38-11.22,13.56-13.86S753.07,559.37,747.21,559.74Z"/><path class="cls-21" d="M857,581.73c-12.38-28.52-32.09-50.39-54.79-67.19-.05,5-2.14,10.62-5.26,16.16l.78-.28L788,561.94S751,608,732.87,623.7c-13.31,11.53-21.66,3.42-25.32-.48a11.68,11.68,0,0,1-3-6.63c-9-74.47-1.14-146.31-1.14-146.33-39.3-9.91-70-11-70-11-32.25,40.31-68.17,115.08-103.35,193.51S477.3,878.59,478,905s66.7,10.26,66.7,10.26c136.34-22.72,173.72-90.89,173.72-90.89-24.92-16.13,23.1-88.91,35.18-108.48C774.9,681.41,857,581.73,857,581.73Z"/><path class="cls-22" d="M798.19,522.87l0,.08a4.16,4.16,0,0,0,.13,2.79l28.92,68.06A7.55,7.55,0,0,0,840,595.58c4.66-5.74,8.2-10.07,10.11-12.4a4,4,0,0,0,.56-4.21c-10.89-24-27.25-43-46.15-58.11A4,4,0,0,0,798.19,522.87Z"/><path class="cls-22" d="M652.53,466l46.36,6.28a1.58,1.58,0,0,1,1.37,1.57v4.19a1.58,1.58,0,0,1-1.38,1.57l-44.36,5.72a1.57,1.57,0,0,1-1.78-1.72c.35-3.41.69-10.5-1.83-15.33A1.57,1.57,0,0,1,652.53,466Z"/><path class="cls-1" d="M800.1,506.5s3.85,6.32-6.6,14.57c-9.11,7.19-21.9,15.77-26.61,23.32a.33.33,0,0,0,.53.39c2.13-2.6,5.45-5.51,7.67-1.89,2.85,4.65-1.91,30.05-3.84,42a1.47,1.47,0,0,0,2.62,1.11c6.61-8.79,21.44-27.24,25.22-31,5.27-5.31,3.48-43,3.48-43S802.48,508.34,800.1,506.5Z"/><path class="cls-14" d="M799.09,520.15S776.34,536.4,773.62,539c0,0,3.48,1.65,4,2.75s21.72-20.05,22.36-18.69c.71,1.53,0,13,0,13,.71-6.15,1.71-12.54,1.44-15.27C801.49,519.87,800.36,519.17,799.09,520.15Z"/><path class="cls-22" d="M694.57,820.62a427.37,427.37,0,0,1-99.25,55.59s-2.15,7.15,2.85,5.31c29.4-10.81,67.21-32.32,81.44-43.61,10.2-8.09,14.15-10.63,17.86-13.75C699.73,822.26,696.91,818.82,694.57,820.62Z"/><path class="cls-23" d="M605,844.6c28.11-7.48,74-21.24,106.52-38.72,1-14.6,9.91-34.33,19.5-52-27.71,24.44-79,66.38-127,87.94A1.5,1.5,0,0,0,605,844.6Z"/><path class="cls-24" d="M486.08,826.29c6.26-49.58,134.53-259.77,134.53-259.77l-30.08-39.23c-19.84,36.77-40.26,80.54-60.45,125.54-21,46.75-35.69,118-44,173.47Z"/><path class="cls-1" d="M633.43,459.32s-182.15,103-236,266.81c0,0-40.68,73.67,40.13,218.8,0,0,30.38-5.5,40.48-28.59,0,0-43.09-74.77,0-162.18s136-155,136-155C633.09,581.91,657.62,459.32,633.43,459.32Z"/><path class="cls-2" d="M614,599.14c6-4.4,14-23.92,17.8-40-183.44,119.68-169.45,240.69-170.08,244h0c.13-.72.26-1.43.4-2.15,2.8-15,6.86-31.24,15.89-46.88C521.1,666.75,614,599.14,614,599.14Z"/><path class="cls-2" d="M404.61,873a469.81,469.81,0,0,0,32.93,71.88,72.33,72.33,0,0,0,18.1-6.46C441.79,925.74,420.82,896.77,404.61,873Z"/><path class="cls-25" d="M372.54,481s-19.29,1-42-14.77-30.76-25.18-44-22.16c0,0,14.48,1.53,28.65,26.38S361.55,494.44,372.54,481Z"/><path class="cls-25" d="M629.91,1071.45s8.52-1.81,16.64-11.7,10.6-15.14,16.7-15.32c0,0-6.14,2.41-9.54,15.44S636.2,1076.29,629.91,1071.45Z"/><circle class="cls-25" cx="406.81" cy="368.78" r="10.28" transform="translate(-16.84 718.07) rotate(-81.7)"/><circle class="cls-25" cx="1157.26" cy="944.93" r="10.28" transform="translate(55.13 1953.61) rotate(-81.7)"/><circle class="cls-26" cx="553.34" cy="358.5" r="7.15" transform="translate(118.7 854.27) rotate(-81.7)"/><circle class="cls-26" cx="441.15" cy="459.32" r="7.15" transform="translate(-77.05 829.52) rotate(-81.7)"/><circle class="cls-26" cx="1071.51" cy="993.31" r="7.15" transform="translate(-66.12 1910.15) rotate(-81.7)"/><polygon class="cls-25" points="1181.61 886.1 1171.43 880.09 1159.62 880.56 1162.19 869.02 1158.08 857.93 1169.86 856.81 1179.13 849.48 1183.84 860.33 1193.67 866.89 1184.81 874.72 1181.61 886.1"/><polygon class="cls-26" points="1130.23 827.89 1118.78 830.84 1110.76 839.53 1104.42 829.55 1093.67 824.61 1101.21 815.49 1102.59 803.75 1113.58 808.09 1125.18 805.78 1124.44 817.58 1130.23 827.89"/></svg>