<svg xmlns="http://www.w3.org/2000/svg" viewBox="0 0 1279.84 274.97"><defs><style>.cls-1{fill:#fff;}</style></defs><title>Asset 2</title><g id="Layer_2" data-name="Layer 2"><g id="Layer_1-2" data-name="Layer 1"><path class="cls-1" d="M0,0C4.56.14,9.12.39,13.68.39q54,0,107.94,0h7.88V130c-1.37.12-2.75.34-4.13.34q-60.52,0-121,0c-1.44,0-2.88-.26-4.32-.4Q0,65,0,0Z"/><path class="cls-1" d="M0,145c3.52-.14,7-.39,10.56-.4q55.53,0,111.06,0h7.91v130h-7.28q-57.4,0-114.81,0c-2.48,0-5,.26-7.44.39Q0,210,0,145Z"/><path class="cls-1" d="M1279.84,218.72c-7,.93-13.93,2.51-20.92,2.68-21.45.51-33.06-10.18-34-31.69-.84-18.92-.81-37.87-1.14-56.81,0-2.46,0-4.93,0-7.86H1183v94H1155V124.69h-19.65V102.23l18.91-1.14c.58-8.4.6-16.52,1.81-24.46A38.1,38.1,0,0,1,1194.41,44c22.66.21,17.57-.92,18.35,17.79.09,2.22,0,4.45,0,6.07-6.1-.27-11.46-1-16.73-.62-6.89.5-11.05,5.08-12,11.63-1.06,7.13-1.1,14.41-1.63,22.37h41.38c0-6.61.19-13.6-.08-20.57-.14-3.69.9-5.65,4.68-6.62,7.59-2,15.06-4.38,23.47-6.87v34.05h28V125h-27.77c0,8.15-.06,15.62,0,23.08.11,12,0,24.11.56,36.13s7.85,17,19.43,14.08c2.6-.65,5.18-1.37,7.77-2.05Z"/><path class="cls-1" d="M272.54,1.25V130H143.46V1.25Z"/><path class="cls-1" d="M503.74,219.56V96.82l-1.22-.41c-.87,1.94-1.82,3.85-2.61,5.82-14.72,36.88-29.5,73.74-44,110.71-1.79,4.56-4,6.22-9,6.26-13.53.1-13.53.38-18.69-12.37q-21.08-52-42.19-104.05a13.78,13.78,0,0,0-4-5.83V219.16H355.43V55.49c12.68,0,25.51-.15,38.32.22,1.34,0,3,3,3.8,4.88q21.35,53.6,42.51,107.28c1,2.43,2.07,4.81,3.67,8.53,1.57-3.56,2.67-5.9,3.65-8.3,14.55-35.61,29.16-71.19,43.52-106.88,1.73-4.3,3.72-6.16,8.53-5.94,8.94.41,17.91.29,26.86,0,4.2-.12,5.82,1,5.81,5.54q-.21,76.54,0,153.09c0,4.36-1.29,5.86-5.67,5.67C519.19,219.33,511.94,219.56,503.74,219.56Z"/><path class="cls-1" d="M143.68,144.94H272.52V274H143.68Z"/><path class="cls-1" d="M922,190.41c9.18,3.19,17.4,6.67,26,8.76,4.63,1.13,9.91.32,14.77-.43,4.5-.7,8.21-3.16,8.75-8.39s-.63-9.86-6-12.52Q954,172.13,942.7,166.14c-17-9-23-20.45-19.82-37.48,2.64-14.06,17-27.37,32.73-28.24,10.88-.6,21.89,1.26,32.84,2.11,4.13.32,5.37,2.79,5.18,6.8-.29,6.22-.08,12.47-.08,19.47-2.47-1-4.65-1.89-6.81-2.8-8.77-3.7-17.69-6.21-27.28-3.59-4.75,1.3-8.45,3.91-9.25,9a10.86,10.86,0,0,0,5.62,11.65c6.13,3.49,12.6,6.39,18.86,9.65,3.5,1.82,6.9,3.84,10.33,5.8,20.35,11.67,18.63,44.14-.95,55.53-13.65,7.95-28.15,8.54-42.95,6.58-19.21-2.54-19.17-2.9-19.16-21.91C922,195.85,922,193,922,190.41Z"/><path class="cls-1" d="M697.47,189.57c-.39,8.37-.61,15.63-1.19,22.86a5.46,5.46,0,0,1-2.66,3.58c-32.93,17.53-76.26.58-85.27-34.7-9.34-36.6,6.51-69.32,40-79.2,14.66-4.33,29.71-3.33,44.27,1.42a7.62,7.62,0,0,1,4.19,5.46c.51,7,.2,14.13.2,21.8-21.08-10.67-41.63-15.09-57,8.35-9.35,14.29-7.58,37.14,3.25,48.64C659.84,205.36,678.13,199.74,697.47,189.57Z"/><path class="cls-1" d="M746,219.53c-8.76,0-16.82.05-24.87,0-4.49,0-3.21-3.59-3.2-6,.11-29.75.33-59.51.5-89.26,0-7.24,0-14.49,0-22.29h27.45v16.95l1.19.34c1-1.63,2.06-3.26,3.1-4.89,7-10.89,18.42-15.76,31.17-13.64,3.44.57,5.25,1.75,5.26,5.43,0,6.45.28,12.89.39,19.34a25,25,0,0,1-.43,3.34c-2.57-.9-4.65-1.72-6.78-2.35-20.68-6.14-32.87,10.18-33.35,26.27-.59,19.75-.32,39.53-.42,59.3C746,214.28,746,216.5,746,219.53Z"/><path class="cls-1" d="M586.44,101.94V219H559.25v-117Z"/><path class="cls-1" d="M573.06,52.46c9.39.1,16.33,6.56,16.37,15.24,0,9.33-6.62,15.66-16.5,15.7-9.7,0-16.5-6.58-16.29-15.87C556.82,58.63,563.66,52.36,573.06,52.46Z"/><path class="cls-1" d="M1124,124.62c-11.45-18.5-28.93-25.37-47.94-25-33.84-.1-55.49,15.56-61.78,44a90.58,90.58,0,0,0-1.82,22.93c.93,23.41,11.12,41.69,33.46,50.39,23.09,9,46.18,7.85,65.86-8.77C1134.13,189.33,1139.47,149.62,1124,124.62ZM1103.56,160c-.39,4.55-.64,9.12-1.21,13.65-1.82,14.49-11.78,24.43-25,25.09-18.84.94-32.14-6.81-34.34-22.49a112.47,112.47,0,0,1,.94-33.89c2-11.85,14.14-19.3,26.25-19.91C1094.1,121.25,1104.42,138.13,1103.56,160Z"/><path class="cls-1" d="M849.07,99.64c-36.88.89-59.51,23.39-60.61,60.68-1.12,38,25.38,62.62,58.48,61.42,37.39.17,61.29-23.69,61.76-61C909.15,124,887.32,98.72,849.07,99.64Zm27,82.58c-3.9,10.39-12,16-23.48,16.54-13.16.58-24.76-2.21-30.77-15.34a52.66,52.66,0,0,1-.21-44.79c5.54-12.47,18.63-18.33,33.51-15.86a28.74,28.74,0,0,1,23.59,25.63c.44,4.14.59,8.3.88,12.46l.84.2C879.06,168.13,878.58,175.55,876.08,182.21Z"/></g></g></svg>