<svg xmlns="http://www.w3.org/2000/svg" viewBox="0 0 799.94 263.79"><defs><style>.cls-1{fill:#fff;}</style></defs><title>Asset 3</title><g id="Layer_2" data-name="Layer 2"><g id="Layer_1-2" data-name="Layer 1"><path class="cls-1" d="M116.94,0c3.33,2,7.22,1.87,10.84,2.71,16.29,3.77,30.28,11.75,42.84,22.58,2.53,2.18,2.56,3.56.12,5.83-4.76,4.41-9.38,9-13.77,13.79-2.38,2.59-3.9,2.33-6.47.15C123.86,22.59,84.82,21.73,58,44,33.4,64.42,25,91.25,33.11,122c7.91,30,28.22,48.49,58.81,53.52,26.25,4.32,49.6-2.59,67.12-24,6.18-7.55,8.71-16.71,10.73-26.06.76-3.51-1-3.79-3.78-3.78-18.66.07-37.32,0-56,0-6.32,0-6.32,0-6.32-6.55,0-6,.1-12,0-18-.06-2.63.9-3.44,3.48-3.43q43.73.1,87.46,0c3.2,0,3.33,1.74,3.61,4,6.39,53.65-24.13,94.73-71.63,104.66-47,9.83-95.08-13.08-116.29-55.87C-16.58,92.34,11.32,25.62,69.14,6,76,3.72,83,2,89.94,0h4a1.3,1.3,0,0,0,2,0h9a7.65,7.65,0,0,0,6,0Z"/><path class="cls-1" d="M110.94,0a4.52,4.52,0,0,1-6,0Z"/><path class="cls-1" d="M95.94,0c-.67,1-1.33,1.15-2,0Z"/><path class="cls-1" d="M666.36,104.52c0,30.31-.07,60.63.09,90.94,0,4.08-1,5.57-5.23,5.32a169.6,169.6,0,0,0-18.48,0c-3.87.2-4.69-1.21-4.67-4.85.12-39.81.08-79.61.08-119.42,0-21.32.09-42.64-.08-64,0-3.88.95-5.27,5-5.05a168.15,168.15,0,0,0,18.48,0c4.09-.23,4.95,1.28,4.93,5.09C666.3,43.23,666.36,73.87,666.36,104.52Z"/><path class="cls-1" d="M715.73,157.08c4.24-1.45,8.32-3.35,12.46-5.08l71.74-30v-1c-2.48-3.39-3.32-7.52-5.06-11.25-13.38-28.63-40.64-42.25-69.51-35-29.22,7.32-51.71,36.17-45.85,74.67,5,32.56,28.86,53.54,62,55.06,22.63,1,41-8.2,55-26.09,1.72-2.19,1.72-3.43-.77-5-5.64-3.54-11.15-7.28-16.61-11.09-2-1.4-3.28-1.59-4.83.66a38.91,38.91,0,0,1-8,8.23c-16.39,13-41.59,8.74-52.41-8.83C712.17,159.45,712.49,158.19,715.73,157.08Zm-5.42-21.6c-3.34,1.41-3.25-.46-3.1-2.33,1.2-23.71,24.12-40.31,45.07-33a23.92,23.92,0,0,1,12.44,9.52c1.08,1.63,1.26,2.69-1.1,3.66Q736.89,124.24,710.3,135.48Z"/><path class="cls-1" d="M621.17,81.51c.07-3.84-1.11-4.88-4.78-4.65-5,.31-10,.08-15,.08-7.37,0-7.35,0-7.59,7.17,0,.92.4,2-.62,2.7-.21,0-.4.13-.51.07a5.45,5.45,0,0,1-1.24-.76C578,73.46,562,70,544.65,74.67c-26.85,7.15-43.36,25.24-48.34,52.25-5.12,27.77,4.91,50.48,27.95,66.91,19.67,14,49.62,16,68.25-3.5.12-.13.59.08,1.16.17.48,8.94.3,17.85-2.82,26.43-4.05,11.12-12.08,17.79-23.61,20-17.34,3.25-31.25-3.28-39.77-18.77-1.71-3.12-3.14-3.5-6.13-2.11a150.14,150.14,0,0,1-16.11,6.72c-4.38,1.45-4.72,3.09-2.62,7.06C516,255,543.7,268,572.09,262.54c23.29-4.52,38.55-17.8,45.49-40.45a83.24,83.24,0,0,0,3.48-24.63q-.06-38.73,0-77.47C621.08,107.16,620.92,94.33,621.17,81.51Zm-30.91,79.13c-13.07,24-46,24-60.23.43a44.08,44.08,0,0,1-6.09-22.25c.35-13.15,5-24.7,16-33.06a33.39,33.39,0,0,1,49.39,9.66C598,130.1,598.44,145.64,590.26,160.64Z"/><path class="cls-1" d="M276.25,72.93c-37.26,0-66,28.57-66.07,65.69s29.24,66.26,66.36,66.1,65.72-29,65.64-66.15C342.09,101.24,313.64,72.91,276.25,72.93Zm24.48,96a35.88,35.88,0,0,1-50.41-1.34c-14-14.54-15-40-2-55.47a36.15,36.15,0,0,1,38.78-11.6A37.88,37.88,0,0,1,313,133c.17,1.82.23,3.66.31,4.89C313.32,150.37,309.52,160.7,300.73,168.93Z"/><path class="cls-1" d="M418.82,72.93c-37.41-.06-65.93,28.24-66,65.53s28.79,66.32,66,66.26c36.74-.06,65.73-28.84,66-65.5C485,101.9,456.25,73,418.82,72.93Zm36.64,70.59c-2.18,18.9-14.49,32.12-30.9,34.56a37.17,37.17,0,0,1-42.64-34.19c-.14-1.83-.17-3.66-.22-4.72.15-23,15.67-39.74,36.06-40.29C439.49,98.29,458.48,117.4,455.47,143.52Z"/></g></g></svg>