<svg xmlns="http://www.w3.org/2000/svg" viewBox="0 0 109.33 128.33"><defs><style>.cls-1{fill:#fff;}.cls-2{fill:#1c574c;}.cls-3{fill:#a1d294;}</style></defs><title>Asset 1</title><g id="Layer_2" data-name="Layer 2"><g id="Layer_1-2" data-name="Layer 1"><path class="cls-1" d="M17.83,3h88.5a0,0,0,0,1,0,0V125.33a0,0,0,0,1,0,0H27.67A24.67,24.67,0,0,1,3,100.67V17.83A14.83,14.83,0,0,1,17.83,3Z"/><path class="cls-2" d="M106.33,128.33H27.67A27.7,27.7,0,0,1,0,100.67V17.83A17.85,17.85,0,0,1,17.83,0h88.5a3,3,0,0,1,3,3V125.33A3,3,0,0,1,106.33,128.33ZM17.83,6A11.85,11.85,0,0,0,6,17.83v82.83a21.69,21.69,0,0,0,21.67,21.67h75.67V6Z"/><path class="cls-2" d="M27.67,103a3,3,0,0,1-3-3V3a3,3,0,0,1,6,0v97A3,3,0,0,1,27.67,103Z"/><path class="cls-3" d="M27.67,125.33h78.67V100.67H3A24.67,24.67,0,0,0,27.67,125.33Z"/><path class="cls-2" d="M106.33,128.33H27.67A27.7,27.7,0,0,1,0,100.67a3,3,0,0,1,3-3H106.33a3,3,0,0,1,3,3v24.67A3,3,0,0,1,106.33,128.33ZM6.21,103.67a21.7,21.7,0,0,0,21.46,18.67h75.67V103.67Z"/><path class="cls-2" d="M90,41.58a3,3,0,0,1-2.12-.88l-8.63-8.63L70.62,40.7a3,3,0,0,1-5.12-2.12V3a3,3,0,0,1,3-3H90a3,3,0,0,1,3,3V38.58a3,3,0,0,1-3,3ZM79.25,24.83a3,3,0,0,1,2.12.88L87,31.34V6H71.5V31.34l5.63-5.63A3,3,0,0,1,79.25,24.83Z"/></g></g></svg>