<svg width="404" height="536" viewBox="0 0 404 536" fill="none" xmlns="http://www.w3.org/2000/svg">
<path d="M282.118 256.152C282.118 256.152 265.141 288.184 241.314 303.221C217.487 318.258 264.802 313.923 264.802 313.923C264.802 313.923 288.157 295.555 295.341 268.754C295.363 268.736 291.279 259.421 282.118 256.152Z" fill="#46B0C6"/>
<path d="M286.67 258.475C286.67 258.529 288.095 275.35 288.398 285.624C291.404 280.303 293.743 274.631 295.363 268.736C295.363 268.736 292.638 262.533 286.67 258.475Z" fill="#358DA0"/>
<path d="M254.06 194.269C254.06 194.269 250.876 223.375 248.182 252.04C245.487 280.705 248.182 298.619 248.182 298.619L221.496 312.117C221.496 312.117 210.477 272.875 217.576 231.706C224.676 190.537 254.06 194.269 254.06 194.269Z" fill="#46B0C6"/>
<path d="M217.576 231.692C214.459 249.65 214.829 267.233 216.209 281.356L248.591 194.398C239.742 195.544 222.752 201.694 217.576 231.692Z" fill="#358DA0"/>
<path d="M183.221 305.401C183.221 305.401 273.972 280.389 292.909 286.195C311.846 292.001 310.047 324.198 310.047 324.198C310.047 324.198 312.496 404.466 314.126 431.9C307.251 433.985 300.092 434.978 292.909 434.844L270.343 335.163C270.128 334.402 269.761 333.692 269.264 333.077C268.767 332.462 268.15 331.955 267.451 331.587C266.752 331.218 265.985 330.996 265.197 330.934C264.41 330.872 263.618 330.971 262.87 331.225L192.685 363.587C192.685 363.587 137.189 323.711 138.823 322.726C140.458 321.74 172.773 304.75 172.773 304.75L183.221 305.401Z" fill="#2B6B5E"/>
<path d="M258.839 320.59L169.669 338.088L205.614 357.625L262.874 331.225C263.622 330.971 264.414 330.872 265.202 330.934C265.989 330.996 266.756 331.218 267.455 331.587C268.155 331.955 268.772 332.462 269.269 333.077C269.766 333.692 270.133 334.402 270.347 335.163L279.998 377.808L276.052 333.522C275.87 331.499 275.265 329.537 274.278 327.763C273.29 325.988 271.941 324.442 270.318 323.223C268.696 322.003 266.835 321.139 264.858 320.686C262.88 320.232 260.83 320.199 258.839 320.59V320.59Z" fill="#1C574C"/>
<path d="M310.042 324.197C310.042 324.197 311.824 292.001 292.905 286.195C273.986 280.389 183.217 305.401 183.217 305.401L182.126 305.334C182.374 306.949 183.231 308.406 184.522 309.406C184.522 309.406 265.577 290.003 284.835 292.737C304.092 295.47 306.546 336.354 308.653 341.522C308.836 341.936 309.11 342.303 309.455 342.596C309.799 342.888 310.206 343.099 310.643 343.212C310.278 331.845 310.042 324.197 310.042 324.197Z" fill="#4A9C89"/>
<path d="M181.262 332.862C181.262 332.862 194.133 344.332 205.169 357.991C233.498 393.064 287.387 460.909 311.352 498.666C302.293 505.284 296.819 509.596 288.825 514.109C288.825 514.109 241.817 445.956 176.692 414.085C111.567 382.214 88.8761 358.847 85.2687 338.427C81.6613 318.008 130.01 287.1 130.01 287.1L181.262 332.862Z" fill="#2B6B5E"/>
<path d="M99.0749 350.303L102.415 348.519C103.439 347.972 104.621 347.799 105.759 348.029C106.896 348.26 107.918 348.879 108.65 349.781L111.924 353.794C112.37 354.343 112.585 355.045 112.521 355.75C112.458 356.455 112.122 357.107 111.585 357.567C109.501 359.351 106.557 362.165 106.361 364.131C106.067 367.222 99.0749 350.303 99.0749 350.303Z" fill="#80A878"/>
<path d="M90.3459 346.263C90.3459 346.263 95.0801 348.385 99.6495 347.569C104.219 346.753 103.569 354.258 106.178 358.847C107.237 360.6 108.498 362.221 109.937 363.676C111.238 365.042 111.979 366.848 112.011 368.735C112.043 370.622 111.365 372.452 110.111 373.862C106.579 377.821 100.518 383.347 90.5775 389.229C90.1741 389.468 89.7267 389.623 89.262 389.685C88.7973 389.747 88.3249 389.715 87.8729 389.59C87.421 389.465 86.9989 389.25 86.6318 388.958C86.2647 388.666 85.9602 388.303 85.7364 387.891C83.2914 383.347 78.6952 375.204 75.6089 372.176C75.1744 371.749 74.8625 371.213 74.7058 370.623C74.5491 370.034 74.5534 369.414 74.7182 368.827C76.0765 364.015 80.1605 352.809 90.3459 346.263Z" fill="#A1D294"/>
<path d="M289.48 229.48L284.839 225.07C284.839 225.07 293.381 210.323 297.679 210.755C301.977 211.188 324.463 228.834 325.06 232.673C325.657 236.513 312.024 258.19 309.379 258.417C306.733 258.645 303.286 260.268 303.237 260.754C303.188 261.24 288.015 254.065 288.015 254.065L296.258 248.549C296.258 248.549 291.025 236.861 290.616 236.165C290.206 235.469 289.48 229.48 289.48 229.48Z" fill="#A1D294"/>
<path d="M299.438 450.028C300.495 450.782 301.68 451.338 302.934 451.669C307.388 452.842 318.664 455.999 324.757 459.361C330.395 462.483 344.491 461.016 351.572 460.021C351.871 459.982 352.15 459.849 352.369 459.641C352.588 459.433 352.736 459.161 352.791 458.865C352.846 458.568 352.807 458.261 352.677 457.988C352.548 457.715 352.336 457.49 352.071 457.346C347.675 454.88 340.71 450.706 338.96 448.079C336.871 444.957 327.273 440.052 323.505 438.188C322.536 437.712 321.422 437.621 320.388 437.934L296.37 445.167C296.127 445.237 295.908 445.374 295.74 445.564C295.572 445.753 295.461 445.986 295.42 446.236C295.379 446.486 295.41 446.742 295.508 446.975C295.607 447.208 295.77 447.409 295.978 447.553L299.438 450.028Z" fill="#358DA0"/>
<path d="M300.627 524.009C301.424 524.518 302.3 524.889 303.219 525.106C307.838 526.194 322.989 529.922 330.894 533.851C337.802 537.284 355.144 535.817 363.851 534.8C365.521 534.604 365.953 532.651 364.483 531.911C359.094 529.2 350.566 524.62 348.45 521.752C345.907 518.336 334.136 512.927 329.518 510.898C328.313 510.375 326.969 510.268 325.697 510.595L296.102 518.221C294.766 518.559 294.486 520.093 295.604 520.802L300.627 524.009Z" fill="#358DA0"/>
<path d="M194.93 139.682C194.93 139.682 223.29 151.941 228.715 160.726C234.139 169.511 214.392 186.59 214.392 186.59L202.813 199.83L195.718 178.006L191.554 150.384L194.93 139.682Z" fill="#368FA1"/>
<path d="M214.397 186.586L202.804 199.825L195.705 178.006" fill="#2B767D"/>
<path d="M228.675 162.438C226.314 158.616 219.616 154.139 212.798 150.3C215.105 157.519 220.142 178.688 205.712 193.234C201.904 197.074 202.042 198.916 204.594 199.451L214.352 188.302C214.352 188.302 234.082 171.223 228.675 162.438Z" fill="#1E6775"/>
<path d="M216.926 175.214C214.237 177.168 211.998 179.675 210.357 182.568C207.685 187.348 205.752 190.372 205.752 190.372C205.752 190.372 207.854 173.908 205.752 170.474C203.65 167.04 194.333 147.513 194.333 147.513L194.943 139.669C194.943 139.669 190.352 145.327 185.675 144.574C185.675 144.574 182.197 176.61 186.183 209.828C186.303 210.931 186.771 211.966 187.519 212.784C189.154 214.524 192.863 218.136 198.796 212.998C206.852 205.984 223.331 185.444 223.331 185.444L227.646 171.388L216.926 175.214Z" fill="#1E6775"/>
<path d="M196.4 177.31C196.4 177.31 199.032 184.445 199.112 184.601C199.192 184.757 204.354 187.482 204.354 187.482C204.354 187.482 203.499 174.202 202.127 171.303C200.755 168.405 196.4 177.31 196.4 177.31Z" fill="#B24B5B"/>
<path d="M220.026 181.457C219.781 181.64 209.315 188.32 207.556 189.93C205.797 191.54 210.62 195.018 210.62 195.018L219.416 190.376L223.331 182.42L220.026 181.457Z" fill="#B24B5B"/>
<path d="M194.93 139.682C194.93 139.682 199.526 159.749 205.498 169.734C205.715 170.097 205.796 170.525 205.727 170.943C205.658 171.36 205.442 171.739 205.12 172.012C202.002 174.63 193.736 182.01 190.124 188.909C190.058 189.042 189.951 189.15 189.818 189.217C189.686 189.284 189.536 189.307 189.389 189.283C189.243 189.259 189.108 189.188 189.005 189.081C188.902 188.975 188.835 188.838 188.815 188.69C187.768 181.801 184.86 161.435 185.867 154.353C187.096 145.782 194.93 139.682 194.93 139.682Z" fill="#46B0C6"/>
<path d="M181.956 42.9089C181.956 42.9089 170.083 55.4264 173.263 81.6609C176.443 107.895 185.506 108.136 185.506 108.136L211.702 54.2045L198.234 45.8699L181.956 42.9089Z" fill="#1C574C"/>
<path d="M198.234 45.8699C198.234 45.8699 175.076 61.888 179.627 108.631C184.179 155.374 221.317 152.462 228.84 150.549C246.209 146.134 260.18 131.918 271.688 116.961C283.196 102.005 270.383 56.0016 262.219 50.7708C254.056 45.5399 209.008 39.0025 198.234 45.8699Z" fill="#A1D294"/>
<path d="M198.778 118.312C198.778 118.312 215.372 125.666 250.141 118.312C250.141 118.312 250.511 138.38 232.772 143.512C215.033 148.645 200.737 131.673 198.778 118.312Z" fill="#266457"/>
<path d="M198.234 45.8699C198.234 45.8699 191.848 50.2936 186.441 61.2459C193.184 63.3329 214.005 69.2728 226.145 64.0107C237.6 59.0385 233.271 48.2602 230.835 43.7473C217.327 42.3604 203.574 42.4674 198.234 45.8699Z" fill="#80A878"/>
<path d="M236.785 147.776C250.551 141.648 261.988 129.568 271.688 116.961C277.313 109.652 277.152 95.0167 274.565 81.3131L265.319 89.5049C265.319 89.5049 268.183 120.988 236.785 147.776Z" fill="#80A878"/>
<path d="M256.225 79.4714C257.116 85.1214 259.071 101.648 254.501 119.637C254.443 119.853 254.457 120.081 254.541 120.288C254.625 120.495 254.774 120.669 254.965 120.784C255.157 120.899 255.38 120.947 255.602 120.923C255.824 120.899 256.031 120.803 256.194 120.649C261.159 115.934 265.539 110.637 269.238 104.872C269.238 104.872 266.499 121.769 257.837 131.356C257.735 131.473 257.673 131.62 257.663 131.775C257.652 131.931 257.693 132.085 257.778 132.215C257.864 132.344 257.99 132.442 258.136 132.494C258.283 132.545 258.442 132.546 258.59 132.498C269.381 129.015 284.327 119.851 294.7 103.895C300.756 94.5797 306.943 80.7066 303.838 73.4958C301.678 68.4835 295.47 65.9148 291.907 64.8134C291.656 64.7353 291.429 64.5936 291.249 64.4021C291.068 64.2105 290.94 63.9755 290.877 63.7199C290.814 63.4642 290.818 63.1965 290.888 62.9428C290.959 62.6891 291.093 62.4579 291.279 62.2715C294.989 58.5168 302.511 49.6604 300.899 40.9736C298.779 29.5353 276.288 28.2242 276.288 28.2242C276.288 28.2242 277.397 17.1114 266.624 14.9843C256.345 12.9553 216.931 9.14252 207.957 0.268364C207.844 0.152495 207.701 0.0696808 207.544 0.0288196C207.388 -0.0120416 207.223 -0.00940869 207.068 0.0364406C206.913 0.0822899 206.773 0.169621 206.663 0.28905C206.554 0.408479 206.479 0.555496 206.447 0.714302C205.837 3.88046 205.111 11.2563 208.148 22.4404C208.148 22.4404 185.096 23.5552 174.042 14.4135C173.895 14.2863 173.716 14.2022 173.524 14.1706C173.332 14.139 173.135 14.1611 172.955 14.2345C172.775 14.3078 172.619 14.4296 172.503 14.5863C172.388 14.743 172.318 14.9286 172.301 15.1225C171.793 21.1962 171.241 38.8955 180.603 48.8042C190.227 58.9894 212.82 61.5268 219.705 62.0709C220.321 62.1214 220.917 62.31 221.45 62.6227C221.982 62.9353 222.438 63.364 222.783 63.8769C226.003 68.6172 236.589 81.5717 253.9 77.8794C254.158 77.8226 254.424 77.8193 254.683 77.8697C254.942 77.92 255.188 78.0229 255.406 78.1721C255.624 78.3212 255.809 78.5135 255.95 78.7369C256.091 78.9604 256.184 79.2103 256.225 79.4714V79.4714Z" fill="#2B6B5E"/>
<path d="M278.555 78.8916C278.177 78.5795 279.562 86.5618 270.053 103.048C260.545 119.534 276.288 108.145 276.288 108.145C276.288 108.145 285.071 84.2741 278.555 78.8916Z" fill="#1C574C"/>
<path d="M290.62 85.4201C284.581 95.2308 278.542 95.4225 278.542 95.4225H277.072L268.018 110.326C266.49 116.123 263.377 125.22 257.837 131.356C257.735 131.473 257.673 131.62 257.663 131.775C257.652 131.931 257.693 132.085 257.778 132.215C257.864 132.344 257.99 132.442 258.136 132.494C258.283 132.545 258.442 132.546 258.59 132.498C269.381 129.015 284.327 119.851 294.7 103.895C298.939 97.3757 303.228 88.6131 304.364 81.478C301.344 80.0109 295.06 78.2138 290.62 85.4201Z" fill="#1C574C"/>
<path d="M273.981 96.2057L283.716 101.833C284.414 102.237 284.924 102.903 285.133 103.683C285.342 104.463 285.232 105.294 284.829 105.994L273.795 125.13C273.392 125.829 272.727 126.34 271.948 126.549C271.169 126.758 270.339 126.649 269.64 126.245L259.905 120.617L273.981 96.2057Z" fill="#A1D294"/>
<path d="M269.158 119.334C264.589 117.456 265.809 113.862 265.462 110.986L259.895 120.64L269.648 126.286C269.991 126.484 270.37 126.613 270.762 126.665C271.155 126.716 271.554 126.69 271.937 126.588C272.319 126.485 272.678 126.308 272.992 126.066C273.306 125.825 273.57 125.524 273.768 125.18L280.782 113.028C276.293 118.165 272.975 120.903 269.158 119.334Z" fill="#80A878"/>
<path d="M221.994 26.8685C213.087 23.0781 206.318 13.0445 206.282 12.9821C206.675 16.1809 207.302 19.3467 208.157 22.4538C208.157 22.4538 206.981 22.5073 205.04 22.4939C212.767 28.5007 221.994 26.8685 221.994 26.8685Z" fill="#1C574C"/>
<path d="M292.807 232.423C293.591 231.978 309.169 233.351 311.191 241.926C313.213 250.502 293.648 239.839 293.648 239.839C293.648 239.839 290.068 233.94 292.807 232.423Z" fill="#90BC85"/>
<path d="M290.705 218.091C290.705 218.091 300.324 225.801 302.173 227.621C304.489 229.904 308.479 238.359 303.838 238.011C299.198 237.663 291.391 233.721 291.391 233.721C291.391 233.721 299.901 239.22 300.048 241.449C300.195 243.679 301.019 250.841 295.559 253.441C293.635 254.426 291.448 254.773 289.314 254.432C287.18 254.092 285.209 253.081 283.686 251.545C283.686 251.545 288.073 245.539 286.661 242.444C285.249 239.349 278.76 231.674 279.446 229.895C280.132 228.116 288.799 217.654 290.705 218.091Z" fill="#80A878"/>
<path d="M191.465 347.685C191.83 348.011 197.669 354.017 200.332 356.787C206.745 363.453 266.976 436.257 270.699 444.636C274.618 453.461 259.601 434.852 259.601 434.852C259.601 434.852 222.386 389.068 216.846 386.125C216.846 386.125 186.076 353.91 184.611 352.296C181.667 349.063 184.687 341.602 191.465 347.685Z" fill="#4A9C89"/>
<path d="M196.4 154.701C196.4 154.701 200.818 168.244 199.869 170.71C198.92 173.176 192.298 179.87 192.035 181.413C191.772 182.956 204.358 170.71 204.358 170.71C204.358 170.71 197.647 154.184 197.442 153.765C197.197 153.323 195.954 153.122 196.4 154.701Z" fill="#7BCFE5"/>
<path d="M285.396 32.1395C285.841 31.9388 300.093 35.2611 298.129 44.7239C296.165 54.1866 291.765 58.9448 290.62 57.1432C289.475 55.3416 294.049 51.9124 292.58 46.8465C291.11 41.7807 287.017 40.4741 285.396 38.0214C283.775 35.5688 282.011 33.6691 285.396 32.1395Z" fill="#59B7A0"/>
<path d="M254.875 16.777C254.875 16.777 272.837 15.9609 273.977 21.8428C275.117 27.7247 271.688 28.8574 270.548 27.0647C269.408 25.2721 268.98 19.68 264.54 20.0279C260.1 20.3757 252.101 19.0646 254.875 16.777Z" fill="#59B7A0"/>
<path d="M275.727 80.1402C278.328 80.9429 269.118 101.884 266.179 105.559C263.239 109.233 262.447 105.251 264.843 102.125C266.228 100.314 268.682 94.883 269.719 91.9532C270.503 89.7101 273.175 79.3376 275.727 80.1402Z" fill="#59B7A0"/>
<path d="M280.337 102.174C281.24 102.914 281.869 103.937 282.121 105.079C282.373 106.22 282.234 107.414 281.726 108.466C280.835 110.344 278.787 113.372 277.972 113.042C277.157 112.712 277.807 110.919 278.217 109.608C278.626 108.297 280.256 105.318 278.462 104.216C276.934 103.28 274.694 100.377 276.293 100.292C277.892 100.207 278.756 100.925 280.337 102.174Z" fill="#C4E1B9"/>
<path d="M249.313 204.588C249.419 204.391 249.59 204.237 249.796 204.151C250.003 204.066 250.233 204.054 250.447 204.119C250.661 204.183 250.847 204.32 250.972 204.505C251.097 204.691 251.154 204.914 251.134 205.137C249.878 217.288 246.489 249.65 245.79 250.667C244.953 251.924 243.283 244.7 243.283 244.7C243.283 244.7 245.821 212.325 247.527 208.298C248.101 206.987 248.716 205.712 249.313 204.588Z" fill="#7BCFE5"/>
<path d="M73.0792 297.535C73.2379 297.257 73.3373 296.95 73.3711 296.632C73.4049 296.314 73.3725 295.993 73.2758 295.688C73.1791 295.383 73.0202 295.102 72.8093 294.862C72.5984 294.621 72.34 294.428 72.0504 294.293C71.6908 294.148 71.2953 294.117 70.9176 294.205C70.54 294.293 70.1984 294.495 69.9394 294.784C67.9798 296.567 68.7369 319.707 71.7209 327.145C74.393 333.727 77.3992 338.913 77.9871 339.074C78.575 339.234 80.0447 339.399 79.5548 337.442C79.292 336.394 77.7734 332.496 76.4373 329.098C74.8867 325.198 73.8854 321.101 73.4622 316.924C72.8432 310.828 72.1261 302.315 72.7051 299.444C72.7363 299.296 73.0213 297.646 73.0792 297.535Z" fill="#7BCFE5"/>
<path d="M186.17 209.814C186.289 210.917 186.757 211.953 187.506 212.771C189.14 214.51 192.85 218.122 198.782 212.985C199.628 212.249 206.148 206.702 207.151 205.707C191.563 211.951 187.452 190.193 184.286 179.879C184.387 189.884 185.016 199.876 186.17 209.814V209.814Z" fill="#105460"/>
<path d="M198.19 197.618C195.133 202.572 191.759 207.322 188.089 211.839C184.032 216.744 189.773 219.358 190.276 219.683C190.779 220.009 196.293 218.47 196.293 218.47C196.293 218.47 203.997 204.089 204.924 200.9C205.85 197.712 201.472 194.608 201.472 194.608L198.19 197.618Z" fill="#B24B5B"/>
<path d="M204.857 201.079C204.879 201.007 204.906 200.936 204.924 200.873C205.85 197.685 201.472 194.581 201.472 194.581L198.19 197.605C198.19 197.605 196.854 199.834 194.712 202.956L204.857 201.079Z" fill="#973E4D"/>
<path d="M198.297 182.349L197.553 197.128C197.53 197.582 197.637 198.033 197.862 198.428C198.087 198.823 198.42 199.146 198.822 199.357L203.735 201.97C204.011 202.116 204.326 202.172 204.636 202.132C204.946 202.092 205.236 201.958 205.467 201.747L215.71 192.423C215.95 192.143 216.097 191.795 216.132 191.428C216.166 191.06 216.086 190.691 215.902 190.372C214.535 188.53 209.141 182.719 200.114 180.936C199.9 180.897 199.681 180.904 199.47 180.955C199.259 181.007 199.062 181.103 198.89 181.236C198.719 181.37 198.577 181.538 198.475 181.729C198.373 181.921 198.312 182.132 198.297 182.349V182.349Z" fill="#C45364"/>
<path d="M205.164 184.463C205.164 184.463 213.323 190.184 208.349 197.703C208.349 197.703 214.308 192.699 214.388 191.522C214.468 190.345 207.774 184.298 205.164 184.463Z" fill="#E98095"/>
<path d="M254.06 194.269C248.547 181.551 239.769 171.798 229.659 164.307C229.637 166.536 228.706 169.042 227.316 171.513L227.664 171.388L223.33 185.444C223.33 185.444 206.852 205.984 198.778 212.985C192.85 218.127 189.131 214.51 187.501 212.771C186.753 211.953 186.285 210.917 186.165 209.814C182.157 176.605 185.657 144.569 185.657 144.56C168.155 140.141 154.482 139.655 154.482 139.655C140.119 157.631 124.122 190.974 108.454 225.948C92.7864 260.923 84.957 326.65 85.2687 338.427C85.5805 350.205 114.974 343.003 114.974 343.003C175.695 332.871 192.342 302.471 192.342 302.471C181.244 295.278 202.63 262.823 208.01 254.096C217.496 238.72 254.06 194.269 254.06 194.269Z" fill="#3D8677"/>
<path d="M227.869 168.021V168.057C227.744 168.466 227.765 168.905 227.927 169.301L240.806 199.652C241.036 200.18 241.398 200.641 241.856 200.99C242.315 201.339 242.855 201.564 243.426 201.644C243.996 201.723 244.577 201.655 245.114 201.445C245.65 201.235 246.124 200.891 246.489 200.445C248.565 197.886 250.141 195.955 250.992 194.916C251.205 194.658 251.342 194.345 251.386 194.013C251.43 193.681 251.38 193.343 251.241 193.038C246.391 182.336 239.105 173.863 230.688 167.125C230.459 166.943 230.189 166.82 229.902 166.767C229.614 166.714 229.318 166.732 229.04 166.821C228.761 166.909 228.509 167.065 228.304 167.274C228.1 167.484 227.951 167.74 227.869 168.021Z" fill="#70C7B3"/>
<path d="M162.998 142.661L183.644 145.461C183.814 145.484 183.969 145.567 184.081 145.696C184.193 145.825 184.255 145.99 184.255 146.161V148.03C184.255 148.201 184.193 148.367 184.079 148.496C183.966 148.625 183.81 148.708 183.64 148.73L163.884 151.281C163.779 151.296 163.671 151.286 163.57 151.253C163.469 151.22 163.377 151.165 163.301 151.091C163.224 151.017 163.166 150.927 163.129 150.827C163.093 150.726 163.08 150.619 163.091 150.514C163.247 148.993 163.398 145.831 162.276 143.677C162.216 143.563 162.189 143.434 162.198 143.306C162.207 143.177 162.251 143.053 162.326 142.948C162.401 142.843 162.503 142.76 162.621 142.71C162.74 142.659 162.87 142.642 162.998 142.661V142.661Z" fill="#70C7B3"/>
<path d="M228.719 160.721C228.719 160.721 230.434 163.54 225.78 167.219C221.723 170.425 216.027 174.251 213.929 177.618C213.909 177.649 213.902 177.687 213.909 177.723C213.916 177.76 213.937 177.792 213.967 177.814C213.996 177.836 214.033 177.846 214.07 177.842C214.107 177.838 214.141 177.82 214.165 177.792C215.114 176.632 216.592 175.335 217.581 176.949C218.85 179.023 216.73 190.349 215.871 195.678C215.85 195.822 215.877 195.968 215.948 196.095C216.019 196.222 216.129 196.321 216.263 196.378C216.396 196.434 216.545 196.445 216.685 196.408C216.825 196.371 216.949 196.288 217.038 196.173C219.981 192.253 226.586 184.026 228.27 182.349C230.617 179.981 229.819 163.174 229.819 163.174C229.819 163.174 229.779 161.542 228.719 160.721Z" fill="#46B0C6"/>
<path d="M228.27 166.808C228.27 166.808 218.138 174.055 216.926 175.214C216.926 175.214 218.476 175.95 218.708 176.44C218.939 176.931 228.381 167.499 228.666 168.106C228.982 168.788 228.666 173.903 228.666 173.903C228.982 171.161 229.427 168.311 229.307 167.094C229.338 166.683 228.835 166.371 228.27 166.808Z" fill="#7BCFE5"/>
<path d="M181.72 300.799C168.156 310.998 153.29 319.335 137.518 325.589C137.518 325.589 136.561 328.777 138.788 327.957C151.881 323.136 168.72 313.544 175.058 308.509C179.601 304.902 181.36 303.769 183.012 302.378C184.019 301.53 182.763 299.996 181.72 300.799Z" fill="#70C7B3"/>
<path d="M141.83 311.493C154.349 308.157 174.786 302.021 189.269 294.226C189.715 287.715 193.683 278.917 197.954 271.037C185.613 281.936 162.77 300.639 141.393 310.253C141.259 310.331 141.155 310.454 141.102 310.6C141.048 310.747 141.047 310.907 141.098 311.054C141.15 311.201 141.252 311.325 141.385 311.405C141.518 311.485 141.676 311.516 141.83 311.493V311.493Z" fill="#2F7163"/>
<path d="M88.8673 303.328C91.6553 281.218 148.782 187.486 148.782 187.486L135.385 169.992C126.549 186.389 117.455 205.908 108.463 225.975C99.1106 246.823 92.5682 278.596 88.8673 303.332V303.328Z" fill="#2E7062"/>
<path d="M154.491 139.682C154.491 139.682 73.3687 185.613 49.386 258.662C49.386 258.662 31.2688 291.515 67.2583 356.234C67.2583 356.234 80.7884 353.781 85.2865 343.484C85.2865 343.484 66.0959 310.142 85.2865 271.162C104.477 232.183 145.856 202.042 145.856 202.042C154.34 194.349 165.264 139.682 154.491 139.682Z" fill="#46B0C6"/>
<path d="M145.838 202.033C148.51 200.071 152.073 191.366 153.765 184.195C72.0682 237.565 78.2988 291.528 78.0183 293.004C78.0762 292.683 78.1341 292.366 78.1964 292.045C79.4434 285.356 81.2516 278.114 85.2732 271.14C104.464 232.183 145.838 202.033 145.838 202.033Z" fill="#358DA0"/>
<path d="M52.5838 324.157C56.5642 335.236 61.4701 345.958 67.2495 356.211C70.0525 355.614 72.7634 354.646 75.3105 353.331C69.1423 347.676 59.8031 334.757 52.5838 324.157Z" fill="#358DA0"/>
<path d="M38.301 149.35C38.301 149.35 29.71 149.796 19.5959 142.763C9.48173 135.731 5.89657 131.535 0 132.881C0 132.881 6.44882 133.564 12.7596 144.645C19.0703 155.727 33.4065 155.343 38.301 149.35Z" fill="#ADB369"/>
<path d="M152.923 412.654C152.923 412.654 156.718 411.847 160.334 407.436C163.951 403.026 165.055 400.685 167.772 400.604C167.772 400.604 165.037 401.679 163.523 407.49C162.009 413.3 155.725 414.812 152.923 412.654Z" fill="#ADB369"/>
<path d="M58.0907 99.958C58.4557 97.4527 56.7233 95.1255 54.2212 94.76C51.7192 94.3946 49.395 96.1292 49.03 98.6345C48.665 101.14 50.3974 103.467 52.8994 103.832C55.4015 104.198 57.7257 102.463 58.0907 99.958Z" fill="#ADB369"/>
<path d="M392.297 356.872C392.662 354.367 390.93 352.04 388.428 351.674C385.925 351.309 383.601 353.043 383.236 355.549C382.871 358.054 384.604 360.381 387.106 360.747C389.608 361.112 391.932 359.377 392.297 356.872Z" fill="#ADB369"/>
<path d="M121.966 95.1726C122.22 93.4302 121.015 91.8115 119.274 91.5573C117.534 91.3031 115.918 92.5096 115.664 94.2521C115.41 95.9946 116.615 97.6132 118.355 97.8674C120.095 98.1216 121.712 96.9151 121.966 95.1726Z" fill="#51886B"/>
<path d="M72.0045 140.132C72.2584 138.389 71.0534 136.77 69.3132 136.516C67.573 136.262 65.9564 137.469 65.7026 139.211C65.4487 140.954 66.6536 142.572 68.3938 142.826C70.1341 143.081 71.7506 141.874 72.0045 140.132Z" fill="#51886B"/>
<path d="M352.726 378.243C352.979 376.501 351.775 374.882 350.034 374.628C348.294 374.374 346.678 375.58 346.424 377.323C346.17 379.065 347.375 380.684 349.115 380.938C350.855 381.192 352.472 379.986 352.726 378.243Z" fill="#51886B"/>
<path d="M398.629 329.999L394.095 327.319L388.835 327.529L389.98 322.383L388.15 317.437L393.396 316.938L397.524 313.669L399.622 318.507L404 321.433L400.054 324.924L398.629 329.999Z" fill="#ADB369"/>
<path d="M375.746 304.041L370.647 305.357L367.075 309.232L364.252 304.781L359.464 302.578L362.822 298.511L363.437 293.276L368.331 295.212L373.497 294.181L373.168 299.443L375.746 304.041Z" fill="#51886B"/>
</svg>
